<?xml version="1.0" encoding="UTF-8"?>
<svg id="Layer_1" data-name="Layer 1" xmlns="http://www.w3.org/2000/svg" viewBox="0 0 1200 1200">
  <defs>
    <style>
      .cls-1 {
        font-size: 219.27px;
      }

      .cls-1, .cls-2 {
        font-family: SVN-Cintra, SVN-Cintra;
      }

      .cls-2 {
        font-size: 160.16px;
        letter-spacing: .1em;
      }

      .cls-3 {
        fill: none;
        stroke: #000;
        stroke-miterlimit: 10;
        stroke-width: 17.87px;
      }
    </style>
  </defs>
  <g>
    <path class="cls-3" d="m440.99,128.24c9.84-6.4,22.39-6.88,33.03-1.92,29.92,13.94,95.85,43.84,138.65,57.17,56.82,17.7,55.81,40.72,68.39,130.13,12.99,88.71,201.39,215.42,193.34,270.26-8.05,54.84-23.66,119.48-216.28,8.27-192.63-111.21-337.1-194.62-337.1-194.62,0,0-62.08-33.95-25.89-96.63,32.35-56.03,95.51-139.94,145.86-172.65Z"/>
    <path class="cls-3" d="m482.89,130.42s126.98-22.21,154.19-5.56c27.21,16.65,22.93,89.99,22.93,89.99"/>
    <path class="cls-3" d="m420.1,144.04s110.63,77.42,248.77,93.76"/>
    <path class="cls-3" d="m307.47,280.55s92.22,57.58,243.41,181.69c151.19,124.11,315.8,155.92,315.8,155.92"/>
    <path class="cls-3" d="m576.67,217.8s-36,57.68,70.28,174.54c106.28,116.85,162.29,93.7,162.29,93.7"/>
    <line class="cls-3" x1="450.32" y1="382.45" x2="588.27" y2="310.16"/>
    <line class="cls-3" x1="550.88" y1="462.24" x2="656.73" y2="402.84"/>
    <path class="cls-3" d="m621.13,229.66s.27,135.44,157.14,224.12"/>
    <path class="cls-3" d="m699.01,442.43s-21.29,30.72,22.15,69.96c43.44,39.24,153.25,71.48,153.25,71.48"/>
  </g>
  <text class="cls-1" transform="translate(102 915.29)"><tspan x="0" y="0">FSNEAKER</tspan></text>
  <text class="cls-2" transform="translate(342.43 1082.14)"><tspan x="0" y="0">SPORT</tspan></text>
</svg>